HIERARCHY
ROOT Hips
{
	OFFSET 0.00000 0.00000 0.00000
	CHANNELS 6 Xposition Yposition Zposition Zrotation Yrotation Xrotation 
	JOINT LHipJoint
	{
		OFFSET 0 0 0
		CHANNELS 3 Zrotation Yrotation Xrotation
		JOINT LeftHip
		{
			OFFSET 1.53794 -1.55850 0.93568
			CHANNELS 3 Zrotation Yrotation Xrotation
			JOINT LeftKnee
			{
				OFFSET 2.28545 -6.27922 0.00000
				CHANNELS 3 Zrotation Yrotation Xrotation
				JOINT LeftAnkle
				{
					OFFSET 2.37329 -6.52057 0.00000
					CHANNELS 3 Zrotation Yrotation Xrotation
					JOINT LeftToe
					{
						OFFSET 0.14846 -0.40788 2.09160
						CHANNELS 3 Zrotation Yrotation Xrotation
						End Site
						{
							OFFSET 0.00000 -0.00000 1.07536
						}
					}
				}
			}
		}
	}
	JOINT RHipJoint
	{
		OFFSET 0 0 0
		CHANNELS 3 Zrotation Yrotation Xrotation
		JOINT RightHip
		{
			OFFSET -1.78290 -1.55850 0.93568
			CHANNELS 3 Zrotation Yrotation Xrotation
			JOINT RightKnee
			{
				OFFSET -2.24144 -6.15831 0.00000
				CHANNELS 3 Zrotation Yrotation Xrotation
				JOINT RightAnkle
				{
					OFFSET -2.35091 -6.45907 0.00000
					CHANNELS 3 Zrotation Yrotation Xrotation
					JOINT RightToe
					{
						OFFSET -0.14428 -0.39641 2.07944
						CHANNELS 3 Zrotation Yrotation Xrotation
						End Site
						{
							OFFSET -0.00000 -0.00000 1.06864
						}
					}
				}
			}
		}
	}
	JOINT lowerback
	{
		OFFSET 0 0 0
		CHANNELS 3 Zrotation Yrotation Xrotation
		JOINT Chest
		{
			OFFSET -0.08841 2.11430 -0.15818
			CHANNELS 3 Zrotation Yrotation Xrotation
			JOINT Chest2
			{
				OFFSET -0.00033 2.12605 -0.08097
				CHANNELS 3 Zrotation Yrotation Xrotation
				JOINT lowerneck
				{
					OFFSET 0 0 0
					CHANNELS 3 Zrotation Yrotation Xrotation
					JOINT Neck
					{
						OFFSET 0.04431 1.59447 0.43193
						CHANNELS 3 Zrotation Yrotation Xrotation
						JOINT Head
						{
							OFFSET 0.00455 1.62017 -0.58852
							CHANNELS 3 Zrotation Yrotation Xrotation
							End Site
							{
								OFFSET -0.00920 1.72955 -0.25850
							}
						}
					}
				}
				JOINT LeftCollar
				{
					OFFSET 0 0 0
					CHANNELS 3 Zrotation Yrotation Xrotation
					JOINT LeftShoulder
					{
						OFFSET 2.86490 1.49927 -0.33774
CHANNELS 3 Zrotation Xrotation Yrotation
						JOINT LeftElbow
						{
OFFSET 0 -4.874080 0.000000
CHANNELS 3 Zrotation Xrotation Yrotation
							JOINT LeftWrist
							{
OFFSET 0 -2.767290 0.000000
CHANNELS 3 Zrotation Xrotation Yrotation
								JOINT lhand
								{
									OFFSET 0 0 0
CHANNELS 3 Zrotation Xrotation Yrotation
									JOINT LFingers
									{
OFFSET 0 -0.989220 0.000000
CHANNELS 3 Zrotation Xrotation Yrotation
										End Site
										{
OFFSET 0 -0.797530 0.000000
										}
									}
								}
								JOINT LThumb
								{
OFFSET 0 0.000000 0.000000
CHANNELS 3 Zrotation Xrotation Yrotation
									End Site
									{
OFFSET 0 -0.809720 0.809720
									}
								}
							}
						}
					}
				}
				JOINT RightCollar
				{
					OFFSET 0 0 0
					CHANNELS 3 Zrotation Yrotation Xrotation
					JOINT RightShoulder
					{
						OFFSET -2.94414 1.45463 -0.25291
CHANNELS 3 Zrotation Xrotation Yrotation
						JOINT RightElbow
						{
OFFSET 0 -4.714040 0.000000
CHANNELS 3 Zrotation Xrotation Yrotation
							JOINT RightWrist
							{
OFFSET 0 -2.834680 0.000000
CHANNELS 3 Zrotation Xrotation Yrotation
								JOINT rhand
								{
									OFFSET 0 0 0
CHANNELS 3 Zrotation Xrotation Yrotation
									JOINT RFingers
									{
OFFSET 0 -0.868200 0.000000
CHANNELS 3 Zrotation Xrotation Yrotation
										End Site
										{
OFFSET 0 -0.699960 0.000000
										}
									}
								}
								JOINT RThumb
								{
OFFSET 0 0.000000 0.000000
CHANNELS 3 Zrotation Xrotation Yrotation
									End Site
									{
OFFSET 0 -0.710650 0.710650
									}
								}
							}
						}
					}
				}
			}
		}
	}
}
MOTION
Frames: 12
Frame Time: 0.008333333333333333
1.343900 16.178100 24.596200 179.241000 -1.034700 -171.716000 0.000000 0.000000 0.000000 -19.582900 -14.425200 -29.331500 2.973800 10.652500 31.116800 0.083100 9.195100 7.857500 0.269000 -3.336100 -9.216000 0.000000 0.000000 0.000000 22.536000 -1.425600 2.743700 -8.074800 -16.174000 52.831500 -0.249100 -23.285500 18.135500 -0.636200 5.103200 -14.203100 -3.409600 3.491800 -2.964000 -2.138900 4.762100 0.450900 -0.076500 2.319800 2.025800 -3.545800 -3.385500 -38.802600 4.290700 -7.580000 40.384400 0.435700 -3.122600 25.920400 0.000000 0.000000 0.000000 23.580500 37.447400 -58.716900 119.649600 -56.402600 85.367200 13.193600 17.220100 -1.554900 0.000000 0.000000 0.000000 -7.125000 0.000000 0.000000 -10.674700 31.464200 -3.588200 0.000000 0.000000 0.000000 -11.032900 12.506100 59.225000 -109.385800 -58.531300 -76.705800 -11.520100 5.546300 -0.014300 0.000000 0.000000 0.000000 7.125000 0.000000 -0.000000 11.794800 29.856300 4.442600
1.336476 16.130433 24.460136 179.146883 -1.143016 -171.856364 0.000000 0.000000 0.000000 -19.917461 -14.293518 -28.901078 3.117977 10.878583 31.877037 0.000667 9.579681 6.663798 0.254112 -3.241212 -8.951215 0.000000 0.000000 0.000000 22.220668 -1.589696 2.097377 -8.522017 -16.476797 54.401183 -0.191210 -23.190531 17.677005 -0.653482 5.170015 -14.394255 -3.463068 3.367785 -2.786395 -2.146121 4.589890 0.505788 -0.070374 2.232904 1.982961 -3.695738 -3.385500 -38.720653 4.469279 -7.591034 40.380587 0.565922 -3.136758 25.926566 0.000000 0.000000 0.000000 23.212065 37.076774 -58.623635 119.350657 -56.479760 85.117912 13.249421 17.094665 -1.491290 0.000000 0.000000 0.000000 -7.125000 0.000000 0.000000 -10.623017 31.401239 -3.586496 0.000000 0.000000 0.000000 -10.950223 12.988124 58.841312 -108.317249 -58.685984 -75.792501 -12.089223 6.456962 0.177463 0.000000 0.000000 0.000000 7.125000 0.000000 0.000000 11.374357 30.057718 4.226131
1.329052 16.082766 24.324072 179.052766 -1.251331 -171.996728 0.000000 0.000000 0.000000 -20.252022 -14.161835 -28.470655 3.262155 11.104667 32.637274 -0.081767 9.964262 5.470096 0.239223 -3.146325 -8.686430 0.000000 0.000000 0.000000 21.905336 -1.753792 1.451054 -8.969235 -16.779593 55.970865 -0.133320 -23.095562 17.218510 -0.670764 5.236830 -14.585409 -3.516536 3.243770 -2.608790 -2.153342 4.417681 0.560676 -0.064249 2.146008 1.940121 -3.845676 -3.385500 -38.638707 4.647857 -7.602069 40.376773 0.696144 -3.150916 25.932733 0.000000 0.000000 0.000000 22.843630 36.706149 -58.530370 119.051715 -56.556919 84.868624 13.305242 16.969230 -1.427680 0.000000 0.000000 0.000000 -7.125000 0.000000 0.000000 -10.571334 31.338278 -3.584792 0.000000 0.000000 0.000000 -10.867546 13.470149 58.457623 -107.248698 -58.840669 -74.879203 -12.658346 7.367624 0.369226 0.000000 0.000000 0.000000 7.125000 0.000000 0.000000 10.953915 30.259136 4.009662
1.321997 16.046406 24.187054 178.911554 -1.319453 -172.116908 0.000000 0.000000 0.000000 -20.602774 -14.108370 -28.065864 3.395263 11.306681 33.324047 -0.155758 10.392466 4.398993 0.229023 -3.080020 -8.501555 0.000000 0.000000 0.000000 21.525612 -1.847267 0.757396 -9.414803 -17.059211 57.502242 -0.081702 -22.948073 16.756282 -0.675479 5.255182 -14.637904 -3.649046 3.125245 -2.456686 -2.163493 4.253371 0.572853 -0.016258 2.062607 1.862644 -3.809447 -3.298189 -38.440607 4.714710 -7.527247 40.319810 0.754378 -3.119694 25.796420 0.000000 0.000000 0.000000 22.441642 36.325561 -58.456334 118.629261 -56.662661 84.515662 13.377731 16.962857 -1.447452 0.000000 0.000000 0.000000 -7.125000 0.000000 0.000000 -10.516439 31.359958 -3.560257 0.000000 0.000000 0.000000 -10.728399 14.098060 57.989163 -106.207189 -58.979206 -73.987325 -12.957942 7.777883 0.512418 0.000000 0.000000 0.000000 7.125000 0.000000 0.000000 10.737240 30.407860 3.886776
1.315263 16.019875 24.049205 178.729406 -1.352637 -172.219544 0.000000 0.000000 0.000000 -20.967598 -14.122893 -27.683352 3.518751 11.487775 33.946963 -0.222410 10.858587 3.434458 0.222897 -3.038560 -8.386141 0.000000 0.000000 0.000000 21.089915 -1.879356 0.022595 -9.858937 -17.318682 59.000323 -0.035536 -22.754930 16.290809 -0.669273 5.231410 -14.569872 -3.850261 3.011494 -2.326748 -2.176191 4.095928 0.547904 0.068123 1.982242 1.755059 -3.611396 -3.134986 -38.141542 4.684446 -7.377796 40.216646 0.750037 -3.049025 25.536260 0.000000 0.000000 0.000000 22.010490 35.936315 -58.399012 118.099448 -56.793249 84.072582 13.464708 17.059975 -1.539703 0.000000 0.000000 0.000000 -7.125000 0.000000 0.000000 -10.458751 31.455211 -3.515876 0.000000 0.000000 0.000000 -10.540165 14.852779 57.447018 -105.189185 -59.103708 -73.114066 -13.023255 7.753177 0.613391 0.000000 0.000000 0.000000 7.125000 0.000000 0.000000 10.697686 30.510780 3.845235
1.308537 15.992521 23.911580 178.548165 -1.386559 -172.323372 0.000000 0.000000 0.000000 -21.333297 -14.129739 -27.297326 3.641944 11.667759 34.566901 -0.288512 11.321897 2.470913 0.217265 -3.000451 -8.280052 0.000000 0.000000 0.000000 20.655048 -1.913446 -0.708687 -10.303917 -17.576001 60.497740 0.010536 -22.562322 15.824729 -0.663455 5.209130 -14.506109 -4.049081 2.898452 -2.194772 -2.189967 3.939240 0.526190 0.150213 1.902213 1.650016 -3.423669 -2.978336 -37.852788 4.660279 -7.234974 40.115293 0.748923 -2.981188 25.284804 0.000000 0.000000 0.000000 21.582570 35.540607 -58.342081 117.570506 -56.923104 83.630121 13.551824 17.149423 -1.629408 0.000000 0.000000 0.000000 -7.125000 0.000000 0.000000 -10.400639 31.547907 -3.472040 0.000000 0.000000 0.000000 -10.352147 15.598576 56.901540 -104.167444 -59.227044 -72.237411 -13.095378 7.744609 0.713734 0.000000 0.000000 0.000000 7.125000 0.000000 0.000000 10.652712 30.613212 3.801892
1.301925 15.954225 23.776937 178.378998 -1.430291 -172.443047 0.000000 0.000000 0.000000 -21.710616 -14.034527 -26.864592 3.761213 11.832991 35.147262 -0.347295 11.747816 1.520535 0.218198 -3.006902 -8.297942 0.000000 0.000000 0.000000 20.231197 -1.974135 -1.393184 -10.760140 -17.804721 61.986328 0.055363 -22.376806 15.350574 -0.662806 5.206696 -14.499091 -4.216058 2.794842 -2.035706 -2.218080 3.792588 0.547488 0.201855 1.826635 1.578780 -3.373203 -2.908803 -37.701106 4.717155 -7.180289 40.038012 0.790708 -2.951006 25.149065 0.000000 0.000000 0.000000 21.197624 35.058988 -58.290358 117.053147 -57.043224 83.195886 13.640789 17.136888 -1.685270 0.000000 0.000000 0.000000 -7.125000 0.000000 0.000000 -10.336866 31.606608 -3.435448 0.000000 0.000000 0.000000 -10.166996 16.225752 56.311768 -103.096013 -59.334872 -71.315593 -13.258013 7.950571 0.805701 0.000000 0.000000 0.000000 7.125000 0.000000 0.000000 10.535675 30.709154 3.734590
1.295312 15.915929 23.642293 178.209831 -1.474023 -172.562721 0.000000 0.000000 0.000000 -22.087936 -13.939315 -26.431857 3.880481 11.998223 35.727622 -0.406077 12.173736 0.570158 0.219131 -3.013352 -8.315832 0.000000 0.000000 0.000000 19.807347 -2.034824 -2.077681 -11.216364 -18.033441 63.474916 0.100190 -22.191290 14.876420 -0.662156 5.204262 -14.492073 -4.383034 2.691232 -1.876641 -2.246193 3.645937 0.568786 0.253498 1.751058 1.507543 -3.322737 -2.839270 -37.549424 4.774031 -7.125604 39.960731 0.832492 -2.920824 25.013325 0.000000 0.000000 0.000000 20.812677 34.577369 -58.238634 116.535789 -57.163345 82.761650 13.729753 17.124352 -1.741131 0.000000 0.000000 0.000000 -7.125000 0.000000 0.000000 -10.273094 31.665309 -3.398856 0.000000 0.000000 0.000000 -9.981846 16.852927 55.721996 -102.024581 -59.442701 -70.393775 -13.420649 8.156532 0.897667 0.000000 0.000000 0.000000 7.125000 0.000000 0.000000 10.418637 30.805097 3.667288
1.289092 15.878860 23.508655 178.021768 -1.495447 -172.683132 0.000000 0.000000 0.000000 -22.479538 -13.827390 -25.975710 3.988952 12.144387 36.246532 -0.460295 12.597643 -0.311702 0.219083 -3.013029 -8.314924 0.000000 0.000000 0.000000 19.357802 -2.060763 -2.781762 -11.676587 -18.242799 64.951307 0.140060 -21.973724 14.400401 -0.662096 5.204061 -14.491509 -4.574870 2.594568 -1.705918 -2.282332 3.506549 0.595851 0.311423 1.678474 1.435447 -3.268148 -2.775062 -37.406944 4.833164 -7.076784 39.868038 0.872510 -2.890004 24.868702 0.000000 0.000000 0.000000 20.416860 34.039527 -58.191082 115.965839 -57.290288 82.282210 13.831529 17.106909 -1.824307 0.000000 0.000000 0.000000 -7.125000 0.000000 0.000000 -10.202328 31.752135 -3.353282 0.000000 0.000000 0.000000 -9.774265 17.477133 55.085204 -100.872411 -59.542063 -69.400887 -13.598672 8.364507 0.990174 0.000000 0.000000 0.000000 7.125000 0.000000 0.000000 10.289206 30.902168 3.596232
1.283129 15.842593 23.375674 177.821364 -1.502303 -172.804023 0.000000 0.000000 0.000000 -22.880467 -13.704551 -25.504274 4.090371 12.278098 36.725311 -0.511532 13.020235 -1.148814 0.218393 -3.008282 -8.301740 0.000000 0.000000 0.000000 18.891478 -2.064009 -3.498633 -12.139423 -18.439511 66.419733 0.176693 -21.735227 13.923163 -0.662421 5.205318 -14.495160 -4.782942 2.502439 -1.527583 -2.323711 3.371905 0.626682 0.373451 1.607846 1.362791 -3.210867 -2.714333 -37.270475 4.893772 -7.031795 39.765280 0.911374 -2.858766 24.718278 0.000000 0.000000 0.000000 20.013942 33.464968 -58.146255 115.361544 -57.421686 81.773249 13.941670 17.086260 -1.925320 0.000000 0.000000 0.000000 -7.125000 0.000000 0.000000 -10.126993 31.857326 -3.301842 0.000000 0.000000 0.000000 -9.552036 18.099399 54.417705 -99.667512 -59.635896 -68.361585 -13.786743 8.573795 1.083033 0.000000 0.000000 0.000000 7.125000 0.000000 0.000000 10.151682 30.999977 3.522723
1.277308 15.806643 23.242983 177.617214 -1.503358 -172.925937 0.000000 0.000000 0.000000 -23.284037 -13.574141 -25.028927 4.189594 12.408289 37.192403 -0.561815 13.438634 -1.970914 0.218339 -3.007844 -8.300555 0.000000 0.000000 0.000000 18.420584 -2.058365 -4.220140 -12.603485 -18.632074 67.887228 0.213070 -21.493438 13.441181 -0.662649 5.206196 -14.497704 -4.996763 2.412881 -1.346693 -2.366991 3.240071 0.659586 0.436892 1.538421 1.290753 -3.152007 -2.654568 -37.139880 4.955022 -6.988729 39.660967 0.949591 -2.827433 24.569255 0.000000 0.000000 0.000000 19.611212 32.876224 -58.104124 114.747349 -57.553704 81.255665 14.053190 17.067070 -2.033826 0.000000 0.000000 0.000000 -7.125000 0.000000 0.000000 -10.051427 31.970221 -3.248609 0.000000 0.000000 0.000000 -9.324874 18.719924 53.738041 -98.449944 -59.726329 -67.311033 -13.972011 8.772242 1.179741 0.000000 0.000000 0.000000 7.125000 0.000000 0.000000 10.016735 31.101707 3.449425
1.272358 15.772648 23.112071 177.390035 -1.468754 -173.054130 0.000000 0.000000 0.000000 -23.703830 -13.397185 -24.529540 4.275313 12.516848 37.587653 -0.606237 13.831247 -2.700725 0.222193 -3.033888 -8.373130 0.000000 0.000000 0.000000 17.921602 -1.998082 -4.970154 -13.075083 -18.799132 69.349001 0.247877 -21.231412 12.930029 -0.662284 5.204735 -14.493444 -5.245929 2.339129 -1.150103 -2.421960 3.125508 0.705224 0.509021 1.476393 1.222518 -3.083448 -2.600735 -37.045398 5.020214 -6.957492 39.547094 0.983830 -2.795506 24.428850 0.000000 0.000000 0.000000 19.209633 32.200287 -58.078566 114.072304 -57.689524 80.685082 14.173189 17.056847 -2.188389 0.000000 0.000000 0.000000 -7.125000 0.000000 0.000000 -9.974429 32.130463 -3.184350 0.000000 0.000000 0.000000 -9.067391 19.329736 52.983605 -97.154499 -59.795862 -66.191327 -14.140042 8.904046 1.300105 0.000000 0.000000 0.000000 7.125000 0.000000 0.000000 9.897628 31.227548 3.377417
